<svg width="26" height="20" xmlns="http://www.w3.org/2000/svg">
  <path d="M23.83333 0H2.16667C.97049 0 0 .959821 0 2.142857v15.714286C0 19.040179.97049 20 2.16667 20h21.66666C25.02951 20 26 19.040179 26 17.857143V2.142857C26 .959821 25.02951 0 23.83333 0zM8 4c1.65469 0 3 1.345312 3 3 0 1.654687-1.34531 3-3 3S5 8.654687 5 7c0-1.654688 1.34531-3 3-3zm5 11.2c0 .441667-.44643.8-1 .8H4c-.55357 0-1-.358333-1-.8v-.8C3 13.075 4.34375 12 6 12h.22321c.54911.2125 1.14733.333333 1.77679.333333.62946 0 1.23214-.120833 1.77679-.333333H10c1.65625 0 3 1.075 3 2.4v.8zm10-2.45c0 .1375-.1575.25-.35.25h-6.3c-.1925 0-.35-.1125-.35-.25v-.5c0-.1375.1575-.25.35-.25h6.3c.1925 0 .35.1125.35.25v.5zm0-3c0 .1375-.1575.25-.35.25h-6.3c-.1925 0-.35-.1125-.35-.25v-.5c0-.1375.1575-.25.35-.25h6.3c.1925 0 .35.1125.35.25v.5zm0-3c0 .1375-.1575.25-.35.25h-6.3c-.1925 0-.35-.1125-.35-.25v-.5c0-.1375.1575-.25.35-.25h6.3c.1925 0 .35.1125.35.25v.5z" fill="#F4F5F6" fill-rule="nonzero"/>
</svg>
