<svg width="26" height="20" xmlns="http://www.w3.org/2000/svg"><path d="M23.833 0H2.167C.97 0 0 .96 0 2.143v15.714C0 19.04.97 20 2.167 20h21.666C25.03 20 26 19.04 26 17.857V2.143C26 .96 25.03 0 23.833 0zM8 4c1.655 0 3 1.345 3 3s-1.345 3-3 3-3-1.345-3-3 1.345-3 3-3zm5 11.2c0 .442-.446.8-1 .8H4c-.554 0-1-.358-1-.8v-.8C3 13.075 4.344 12 6 12h.223a4.911 4.911 0 003.554 0H10c1.656 0 3 1.075 3 2.4v.8zm10-2.45c0 .138-.158.25-.35.25h-6.3c-.193 0-.35-.113-.35-.25v-.5c0-.138.157-.25.35-.25h6.3c.193 0 .35.113.35.25v.5zm0-3c0 .138-.158.25-.35.25h-6.3c-.193 0-.35-.113-.35-.25v-.5c0-.138.157-.25.35-.25h6.3c.193 0 .35.113.35.25v.5zm0-3c0 .138-.158.25-.35.25h-6.3c-.193 0-.35-.113-.35-.25v-.5c0-.138.157-.25.35-.25h6.3c.193 0 .35.113.35.25v.5z" fill="#F4F5F6"/></svg>