<?xml version="1.0" encoding="UTF-8"?>
<svg width="42px" height="42px" viewBox="0 0 42 42" version="1.1" xmlns="http://www.w3.org/2000/svg" xmlns:xlink="http://www.w3.org/1999/xlink">
    <!-- Generator: Sketch 52.4 (67378) - http://www.bohemiancoding.com/sketch -->
    <title>imdb-brands</title>
    <desc>Created with Sketch.</desc>
    <g id="Page-1" stroke="none" stroke-width="1" fill="none" fill-rule="evenodd">
        <g id="Film-Work-Page-Copy-3" transform="translate(-1006.000000, -1057.000000)" fill="#FFBC00">
            <g id="imdb-brands" transform="translate(1006.000000, 1057.000000)">
                <g id="Shape">
                    <path d="M32.859375,24.065625 C32.859375,24.571875 33.009375,25.415625 32.278125,25.415625 C32.128125,25.415625 31.996875,25.340625 31.921875,25.190625 C31.715625,24.7125 31.81875,21.05625 31.81875,21 C31.81875,20.64375 31.715625,19.809375 32.278125,19.809375 C32.9625,19.809375 32.859375,20.49375 32.859375,21 L32.859375,24.065625 Z M24.84375,18.553125 C24.84375,17.64375 24.99375,17.053125 23.878125,17.053125 L23.878125,24.9 C25.021875,24.928125 24.84375,24.084375 24.84375,23.175 L24.84375,18.553125 Z M42,4.5 L42,37.5 C42,39.984375 39.984375,42 37.5,42 L4.5,42 C2.015625,42 0,39.984375 0,37.5 L0,4.5 C0,2.015625 2.015625,0 4.5,0 L37.5,0 C39.984375,0 42,2.015625 42,4.5 Z M2.0009375,18.451875 C1.9909375,18.461875 1.9809375,18.481875 1.9709375,18.491875 L2.0009375,18.491875 L2.0009375,18.451875 Z M9.09375,15 L6,15 L6,26.98125 L9.09375,26.98125 L9.09375,15 Z M19.715625,15 L15.675,15 L14.9625,20.615625 C14.709375,18.740625 14.45625,16.85625 14.146875,15 L10.134375,15 L10.134375,26.98125 L12.853125,26.98125 L12.853125,19.059375 L13.996875,26.98125 L15.928125,26.98125 L17.015625,18.88125 L17.015625,26.98125 L19.70625,26.98125 L19.70625,15 L19.715625,15 Z M27.80625,19.246875 C27.80625,18.4875 27.834375,17.671875 27.675,16.959375 C27.271875,14.85 24.73125,15 23.08125,15 L20.775,15 L20.775,26.98125 C28.846875,26.990625 27.80625,27.54375 27.80625,19.246875 Z M35.859375,20.86875 C35.859375,19.246875 35.784375,18.046875 33.778125,18.046875 C32.94375,18.046875 32.38125,18.3 31.81875,18.909375 L31.81875,15 L28.846875,15 L28.846875,26.98125 L31.640625,26.98125 L31.81875,26.221875 C32.353125,26.859375 32.934375,27.140625 33.778125,27.140625 C35.634375,27.140625 35.859375,25.715625 35.859375,24.24375 L35.859375,20.86875 Z" fill-rule="nonzero"></path>
                </g>
            </g>
        </g>
    </g>
</svg>