<svg xmlns="http://www.w3.org/2000/svg" width="500" height="500"><g fill="#4A90E2" fill-rule="evenodd"><path d="M411.111 250c0-88.837-72.274-161.111-161.11-161.111S88.888 161.163 88.888 250c0 88.838 72.274 161.111 161.111 161.111 88.837 0 161.111-72.273 161.111-161.11"/><path d="M266.667 0v62.725C362.389 70.53 437.915 151.537 437.915 250c0 98.463-75.526 179.47-171.248 187.275V500C396.653 492.074 500 382.983 500 250 500 117.018 396.653 7.927 266.667 0m-33.334 500v-62.725c-95.723-7.804-171.248-88.812-171.248-187.274 0-98.464 75.525-179.471 171.248-187.276V0C103.348 7.927 0 117.018 0 250c0 132.983 103.348 242.074 233.333 250"/></g></svg>