<svg xmlns="http://www.w3.org/2000/svg" width="500" height="500">
  <g fill="#4A90E2" fill-rule="evenodd">
    <path d="M411.111111 250.00044c0-88.837877-72.273674-161.1115511-161.110671-161.1115511S88.8888889 161.162563 88.8888889 250.00044c0 88.837877 72.2745541 161.110671 161.1115511 161.110671 88.836997 0 161.110671-72.272794 161.110671-161.110671"/>
    <path d="M266.666667 0v62.7253789C362.389315 70.5287746 437.914818 151.537131 437.914818 250c0 98.462869-75.525503 179.470366-171.248151 187.27548V500C396.652587 492.073709 500 382.982582 500 250 500 117.018278 396.652587 7.92714997 266.666667 0M233.333333 500v-62.72452c-95.722998-7.804255-171.2487771-88.812611-171.2487771-187.274621 0-98.463728 75.5257791-179.471225 171.2487771-187.2754801V0C103.347791 7.92714997 0 117.018278 0 250.000859 0 382.982582 103.347791 492.073709 233.333333 500"/>
  </g>
</svg>
