<svg width="20" height="13" xmlns="http://www.w3.org/2000/svg">
  <path d="M19.1666667 0H3.88888889c-.72423611 0-1.34177083.45286719-1.57111111 1.08333333H.83333333c-.46024305 0-.83333333.36376302-.83333333.8125v9.20833337C0 12.1512083.87055556 13 1.94444444 13H19.1666667C19.6269097 13 20 12.636237 20 12.1875V.8125C20 .36376302 19.6269097 0 19.1666667 0zM1.66666667 11.1041667V2.70833333h.55555555v8.39583337c0 .1493307-.12461805.2708333-.27777778.2708333-.15315972 0-.27777777-.1215026-.27777777-.2708333zM18.3333333 11.375H3.86881944c.01298612-.0884948.02006945-.1788516.02006945-.2708333V1.625H18.3333333v9.75zM5.97222222 7.3125h4.72222218c.2301042 0 .4166667-.18189844.4166667-.40625v-3.25c0-.22435156-.1865625-.40625-.4166667-.40625H5.97222222c-.23010416 0-.41666666.18189844-.41666666.40625v3.25c0 .22435156.1865625.40625.41666666.40625zm.97222222-2.70833333h2.77777778v1.35416666H6.94444444V4.60416667zM5.55555556 9.34375v-.8125c0-.22435156.1865625-.40625.41666666-.40625h4.72222218c.2301042 0 .4166667.18189844.4166667.40625v.8125c0 .22435156-.1865625.40625-.4166667.40625H5.97222222c-.23010416 0-.41666666-.18189844-.41666666-.40625zm6.66666664 0v-.8125c0-.22435156.1865625-.40625.4166667-.40625H16.25c.2301042 0 .4166667.18189844.4166667.40625v.8125c0 .22435156-.1865625.40625-.4166667.40625h-3.6111111c-.2301042 0-.4166667-.18189844-.4166667-.40625zm0-4.875v-.8125c0-.22435156.1865625-.40625.4166667-.40625H16.25c.2301042 0 .4166667.18189844.4166667.40625v.8125c0 .22435156-.1865625.40625-.4166667.40625h-3.6111111c-.2301042 0-.4166667-.18189844-.4166667-.40625zm0 2.4375v-.8125c0-.22435156.1865625-.40625.4166667-.40625H16.25c.2301042 0 .4166667.18189844.4166667.40625v.8125c0 .22435156-.1865625.40625-.4166667.40625h-3.6111111c-.2301042 0-.4166667-.18189844-.4166667-.40625z" fill="#2A2D2F" fill-rule="nonzero"/>
</svg>
