<svg width="20" height="13" xmlns="http://www.w3.org/2000/svg"><path d="M19.167 0H3.889c-.724 0-1.342.453-1.571 1.083H.833A.823.823 0 000 1.896v9.208C0 12.151.87 13 1.944 13h17.223c.46 0 .833-.364.833-.813V.813A.823.823 0 0019.167 0zm-17.5 11.104V2.708h.555v8.396c0 .15-.124.271-.278.271a.275.275 0 01-.277-.27zm16.666.271H3.87c.013-.088.02-.179.02-.27v-9.48h14.444v9.75zM5.973 7.312h4.721c.23 0 .417-.181.417-.406v-3.25a.412.412 0 00-.417-.406H5.972a.412.412 0 00-.416.406v3.25c0 .225.186.407.416.407zm.971-2.708h2.778v1.354H6.944V4.604zm-1.388 4.74V8.53c0-.224.186-.406.416-.406h4.722c.23 0 .417.182.417.406v.813a.412.412 0 01-.417.406H5.972a.412.412 0 01-.416-.406zm6.666 0V8.53c0-.224.187-.406.417-.406h3.611c.23 0 .417.182.417.406v.813a.412.412 0 01-.417.406h-3.611a.412.412 0 01-.417-.406zm0-4.875v-.813c0-.224.187-.406.417-.406h3.611c.23 0 .417.182.417.406v.813a.412.412 0 01-.417.406h-3.611a.412.412 0 01-.417-.406zm0 2.437v-.812c0-.225.187-.407.417-.407h3.611c.23 0 .417.182.417.407v.812a.412.412 0 01-.417.407h-3.611a.412.412 0 01-.417-.407z" fill="#2A2D2F"/></svg>