<svg width="16" height="23" xmlns="http://www.w3.org/2000/svg"><path d="M14.736 8.703h-.702a.708.708 0 00-.701.715v2.144c0 3.342-2.829 6.024-6.175 5.691-2.917-.29-5.053-2.96-5.053-5.946v-1.89a.708.708 0 00-.702-.714H.702A.708.708 0 000 9.418v1.794c0 4.005 2.806 7.575 6.666 8.118v1.525H4.21a.708.708 0 00-.701.715v.715c0 .395.314.715.701.715h7.018c.387 0 .701-.32.701-.715v-.715a.708.708 0 00-.701-.715H8.77v-1.508c3.76-.526 6.667-3.813 6.667-7.785V9.418a.708.708 0 00-.702-.715zM7.87 15.85c2.34 0 4.238-1.935 4.238-4.323H8.341c-.26 0-.47-.161-.47-.36v-.72c0-.2.21-.36.47-.36h3.767V8.645H8.341c-.26 0-.47-.161-.47-.36v-.72c0-.2.21-.36.47-.36h3.767V5.763H8.341c-.26 0-.47-.161-.47-.36v-.72c0-.2.21-.36.47-.36h3.767C12.108 1.934 10.211 0 7.87 0 5.53 0 3.632 1.935 3.632 4.323v7.205c0 2.388 1.898 4.323 4.238 4.323z" fill="#7FD2E6"/></svg>