<svg width="30" height="23" xmlns="http://www.w3.org/2000/svg"><path d="M28.074 0h-.46v1.194a.706.706 0 01-.69.716h-2.302a.706.706 0 01-.69-.716V0H5.522v1.194c0 .394-.31.716-.69.716h-2.3a.706.706 0 01-.691-.716V0h-.46C.616 0 0 .639 0 1.432v20.055c0 .793.616 1.432 1.38 1.432h.46v-1.194c0-.394.312-.716.691-.716h2.301c.38 0 .69.322.69.716v1.194h18.41v-1.194c0-.394.31-.716.69-.716h2.301c.38 0 .69.322.69.716v1.194h.46c.766 0 1.381-.639 1.381-1.432V1.432C29.454.64 28.84 0 28.074 0zM5.586 18.488c0 .385-.3.7-.666.7H2.698c-.367 0-.667-.315-.667-.7v-2.331c0-.385.3-.7.667-.7H4.92c.366 0 .666.315.666.7v2.331zm0-5.863c0 .385-.3.7-.666.7H2.698c-.367 0-.667-.315-.667-.7v-2.331c0-.385.3-.7.667-.7H4.92c.366 0 .666.315.666.7v2.331zm0-5.863c0 .385-.3.7-.666.7H2.698c-.367 0-.667-.315-.667-.7V4.431c0-.385.3-.7.667-.7H4.92c.366 0 .666.315.666.7v2.331zM21.33 19.028a.689.689 0 01-.68.693H9.313a.689.689 0 01-.68-.693v-5.543c0-.381.306-.693.68-.693H20.65c.374 0 .68.312.68.693v5.543zm0-9.594a.689.689 0 01-.68.693H9.313a.689.689 0 01-.68-.693V3.891c0-.381.306-.693.68-.693H20.65c.374 0 .68.312.68.693v5.543zm6.094 9.054c0 .385-.3.7-.667.7h-2.221c-.367 0-.667-.315-.667-.7v-2.331c0-.385.3-.7.667-.7h2.221c.367 0 .667.315.667.7v2.331zm0-5.863c0 .385-.3.7-.667.7h-2.221c-.367 0-.667-.315-.667-.7v-2.331c0-.385.3-.7.667-.7h2.221c.367 0 .667.315.667.7v2.331zm0-5.863c0 .385-.3.7-.667.7h-2.221c-.367 0-.667-.315-.667-.7V4.431c0-.385.3-.7.667-.7h2.221c.367 0 .667.315.667.7v2.331z" fill="#7FD2E6"/></svg>