<?xml version="1.0" encoding="UTF-8"?>
<svg width="27px" height="27px" viewBox="0 0 27 27" version="1.1" xmlns="http://www.w3.org/2000/svg" xmlns:xlink="http://www.w3.org/1999/xlink">
    <!-- Generator: Sketch 52.5 (67469) - http://www.bohemiancoding.com/sketch -->
    <title>luke-carl-hartman-web-development-for-denali-innovationscompact-disc-solid</title>
    <desc>Created with Sketch.</desc>
    <g id="Page-1" stroke="none" stroke-width="1" fill="none" fill-rule="evenodd">
        <g id="Catalog" transform="translate(-928.000000, -149.000000)" fill="#7FD2E6">
            <g id="Group-8" transform="translate(928.000000, 145.000000)">
                <g id="compact-disc-solid" transform="translate(-0.000000, 4.024862)">
                    <g id="Shape">
                        <path d="M13.5,0 C6.04233871,0 0,6.04233871 0,13.5 C0,20.9576613 6.04233871,27 13.5,27 C20.9576613,27 27,20.9576613 27,13.5 C27,6.04233871 20.9576613,0 13.5,0 Z M4.79032258,13.5 L3.0483871,13.5 C3.0483871,7.73528226 7.73528226,3.0483871 13.5,3.0483871 L13.5,4.79032258 C8.69879032,4.79032258 4.79032258,8.69879032 4.79032258,13.5 Z M13.5,18.7258065 C10.6149194,18.7258065 8.27419355,16.3850806 8.27419355,13.5 C8.27419355,10.6149194 10.6149194,8.27419355 13.5,8.27419355 C16.3850806,8.27419355 18.7258065,10.6149194 18.7258065,13.5 C18.7258065,16.3850806 16.3850806,18.7258065 13.5,18.7258065 Z M13.5,11.7580645 C12.5364919,11.7580645 11.7580645,12.5364919 11.7580645,13.5 C11.7580645,14.4635081 12.5364919,15.2419355 13.5,15.2419355 C14.4635081,15.2419355 15.2419355,14.4635081 15.2419355,13.5 C15.2419355,12.5364919 14.4635081,11.7580645 13.5,11.7580645 Z" fill-rule="nonzero"></path>
                    </g>
                </g>
            </g>
        </g>
    </g>
</svg>