<?xml version="1.0" standalone="no"?>
<!DOCTYPE svg PUBLIC "-//W3C//DTD SVG 20010904//EN"
 "http://www.w3.org/TR/2001/REC-SVG-20010904/DTD/svg10.dtd">
<svg version="1.0" xmlns="http://www.w3.org/2000/svg"
 width="260.000000pt" height="260.000000pt" viewBox="0 0 260.000000 260.000000"
 preserveAspectRatio="xMidYMid meet">
<metadata>
Created by potrace 1.11, written by Peter Selinger 2001-2013
</metadata>
<g transform="translate(0.000000,260.000000) scale(0.100000,-0.100000)"
fill="#000000" stroke="none">
<path d="M1125 2514 c-264 -39 -522 -173 -702 -364 -72 -77 -84 -93 -138 -175
-64 -98 -94 -157 -129 -255 -55 -152 -71 -251 -70 -430 0 -147 6 -198 34 -303
58 -220 159 -395 320 -558 141 -142 303 -243 485 -303 87 -28 222 -56 270 -56
l31 0 -1 152 0 152 -70 12 c-99 18 -102 19 -190 53 -237 91 -442 306 -527 551
-39 114 -51 190 -50 317 1 204 58 374 183 543 148 202 350 320 624 365 6 1 15
3 21 3 10 2 15 296 4 305 -3 2 -45 -2 -95 -9z"/>
<path d="M1378 2523 c-2 -5 -4 -75 -4 -157 l1 -149 40 -4 c22 -2 74 -13 115
-24 272 -72 496 -264 606 -518 90 -208 104 -408 44 -631 -25 -94 -96 -234
-155 -310 -97 -122 -253 -238 -392 -292 -85 -33 -88 -34 -188 -52 l-70 -12 0
-153 -1 -153 56 5 c30 3 64 7 75 10 11 2 38 8 59 11 134 25 355 128 477 223
57 44 209 203 251 263 90 128 181 336 202 460 4 19 10 55 14 80 9 58 9 300 -1
365 -47 324 -249 644 -527 832 -143 97 -323 169 -480 193 -41 6 -85 13 -97 15
-12 3 -23 2 -25 -2z"/>
<path d="M1125 2048 c-157 -37 -313 -135 -415 -261 -309 -382 -194 -950 238
-1175 388 -201 852 -44 1043 353 164 343 53 754 -264 973 -168 117 -398 159
-602 110z"/>
</g>
</svg>
