<svg width="50" height="50" xmlns="http://www.w3.org/2000/svg">
  <path fill="" d="M46.083 9.667H9.028a1.917 1.917 0 0 0-1.917 1.916v.64H3.917A1.917 1.917 0 0 0 2 14.138V35.86a4.472 4.472 0 0 0 4.472 4.472h37.695A3.833 3.833 0 0 0 48 36.5V11.583a1.917 1.917 0 0 0-1.917-1.916ZM6.473 36.5a.639.639 0 0 1-.64-.639V16.056h1.278V35.86a.639.639 0 0 1-.639.639Zm18.846-1.278H13.181a.958.958 0 0 1-.959-.958v-.639c0-.53.43-.958.959-.958h12.138c.53 0 .959.429.959.958v.639c0 .53-.43.958-.959.958Zm16.612 0H29.79a.958.958 0 0 1-.958-.958v-.639c0-.53.43-.958.959-.958H41.93c.529 0 .958.429.958.958v.639c0 .53-.43.958-.958.958Zm-16.612-7.666H13.181a.958.958 0 0 1-.959-.959v-.639c0-.529.43-.958.959-.958h12.138c.53 0 .959.43.959.958v.64c0 .528-.43.958-.959.958Zm16.612 0H29.79a.958.958 0 0 1-.958-.959v-.639c0-.529.43-.958.959-.958H41.93c.529 0 .958.43.958.958v.64c0 .528-.43.958-.958.958Zm0-7.667H13.18a.958.958 0 0 1-.959-.958v-3.195c0-.53.43-.958.959-.958h28.75c.529 0 .958.429.958.958v3.195c0 .529-.43.958-.958.958Z" fill="#000" fill-rule="nonzero" />
</svg>