<?xml version="1.0" encoding="UTF-8"?>
<svg width="65px" height="100px" viewBox="0 0 65 100" version="1.1" xmlns="http://www.w3.org/2000/svg" xmlns:xlink="http://www.w3.org/1999/xlink" alt="nacelle official logo blue">
    <title>Page 1</title>
    <g id="Page-1" stroke="none" stroke-width="1" fill="none" fill-rule="evenodd">
        <path d="M4.87304052,83.1657301 L4.87304052,91.3373995 L1.41276499,83.1657301 L4.214e-05,83.1657301 L4.214e-05,99.8829506 L2.33329984,99.8829506 L2.33329984,91.9904546 L5.75196272,99.8829506 L7.20629822,99.8829506 L7.20629822,83.1657301 L4.87304052,83.1657301 Z M12.8567261,83.1657301 L9.7497893,99.8829506 L12.2214749,99.8829506 L12.7345219,96.719863 L15.3526418,96.719863 L15.8440924,99.8829506 L18.4018476,99.8829506 L15.3385251,83.1657301 L12.8567261,83.1657301 Z M14.0727634,89.1232909 L14.9897164,94.5147091 L13.1008185,94.5147091 L14.0727634,89.1232909 Z" id="Shape" fill="#4591E5" fill-rule="nonzero"></path>
        <path d="M26.4836336,83.1657407 L22.3586093,83.1657407 C21.5444764,83.1657407 20.8820452,83.8569319 20.8820452,84.7063566 L20.8820452,98.3424506 C20.8820452,99.2206353 21.544371,99.8830665 22.4226611,99.8830665 L26.4836336,99.8830665 C27.3253678,99.8830665 27.9601976,99.2206353 27.9601976,98.3424506 L27.9601976,93.8094117 L25.4771344,93.8094117 L25.4771344,97.7207893 L23.3648978,97.7207893 L23.3648978,85.3279125 L25.4771344,85.3279125 L25.4771344,88.3416159 L27.9601976,88.3416159 L27.9601976,84.7063566 C27.9601976,83.8426046 27.3115671,83.1657407 26.4836336,83.1657407" id="Path" fill="#4591E5" fill-rule="nonzero"></path>
        <polygon id="Path" fill="#4591E5" fill-rule="nonzero" points="33.4106523 92.4237528 36.3814789 92.4237528 36.3814789 90.24009 33.4106523 90.24009 33.4106523 85.3280073 36.5737398 85.3280073 36.5737398 83.1657302 30.9279051 83.1657302 30.9279051 99.8830559 36.6380024 99.8830559 36.6380024 97.7207788 33.4106523 97.7207788"></polygon>
        <polygon id="Path" fill="#4591E5" fill-rule="nonzero" points="41.9602389 83.1657407 39.477281 83.1657407 39.477281 99.8830665 45.5934966 99.8830665 45.5934966 97.7207893 41.9602389 97.7207893"></polygon>
        <polygon id="Path" fill="#4591E5" fill-rule="nonzero" points="50.4241235 83.1657407 47.9414817 83.1657407 47.9414817 99.8830665 54.057592 99.8830665 54.057592 97.7207893 50.4241236 97.7207893"></polygon>
        <polygon id="Path" fill="#4591E5" fill-rule="nonzero" points="58.8882087 97.7208 58.8882087 92.4237741 61.8591406 92.4237741 61.8591406 90.2401112 58.8882087 90.2401112 58.8882087 85.3279232 62.0514016 85.3279232 62.0514016 83.1657514 56.4055669 83.1657514 56.4055669 99.8829718 62.1156641 99.8829718 62.1156641 97.7208"></polygon>
        <path d="M50.3440798,30.7511841 C50.3440798,20.1165731 41.6923375,11.4648308 31.0578319,11.4648308 C20.4233262,11.4648308 11.7714785,20.1165731 11.7714785,30.7511841 C11.7714785,41.3857952 20.4233262,50.0374321 31.0578319,50.0374321 C41.6923375,50.0374321 50.3440798,41.3857952 50.3440798,30.7511841" id="Path" fill="#4591E5" fill-rule="nonzero"></path>
        <path d="M32.931233,0.10536971 L32.931233,7.7944378 C44.7589153,8.75100181 54.090998,18.681253 54.090998,30.7511315 C54.090998,42.8210099 44.7589153,52.7511558 32.931233,53.7079305 L32.931233,61.3968932 C48.9925539,60.4252644 61.7623675,47.0525415 61.7623675,30.7511315 C61.7623675,14.4498268 48.9925539,1.07710391 32.931233,0.10536971 M29.1843149,61.3968827 L29.1843149,53.70792 C17.3566325,52.7512506 8.02454986,42.8209994 8.02454986,30.7512263 C8.02454986,18.6812425 17.3566325,8.75109662 29.1843149,7.79442725 L29.1843149,0.10535918 C13.1230993,1.07709338 0.35328568,14.4498162 0.35328568,30.7512263 C0.35328568,47.052531 13.1230993,60.4252538 29.1843149,61.3968827" id="Shape" fill="#4591E5" fill-rule="nonzero"></path>
        <path d="M63.6155202,84.8606815 L63.4363225,84.8606815 L63.4363225,83.5923914 L64.1084456,83.5923914 C64.2359173,83.5923914 64.2910145,83.6716135 64.2910145,83.7681127 L64.2910145,84.1920349 C64.2910145,84.3127642 64.1945153,84.3712326 64.1084456,84.3712326 L64.0153176,84.3712326 L64.3392641,84.8606815 L64.1324651,84.8606815 L63.7086482,84.2334368 L63.7326677,84.2058355 L64.1049691,84.2058355 L64.1049691,83.7577885 L63.6155202,83.7577885 L63.6155202,84.8606815 Z M62.9262252,84.2438663 C62.9262252,84.8434044 63.2812495,85.1639798 63.8327487,85.1639798 C64.3908849,85.1639798 64.7390615,84.8090608 64.7390615,84.2438663 C64.7390615,83.6923671 64.3979432,83.3235421 63.8327487,83.3235421 C63.2604959,83.3235421 62.9262252,83.6854141 62.9262252,84.2438663 Z M63.8291669,83.1649927 C64.4840129,83.1649927 64.9080405,83.6027156 64.9080405,84.2438663 C64.9080405,84.8985016 64.4840129,85.3225292 63.8291669,85.3225292 C63.1744262,85.3225292 62.7503986,84.9123023 62.7503986,84.2438663 C62.7503986,83.5820673 63.1881215,83.1649927 63.8291669,83.1649927 Z" id="Shape" fill="#4591E5" fill-rule="nonzero"></path>
    </g>
</svg>