<svg width="66" height="101" xmlns="http://www.w3.org/2000/svg" aria-labelledby="nacelleCompany">
<title id="nacelleCompanyTitle">nacelle company</title>
  <g fill="#FFF" fill-rule="nonzero">
    <path d="M4.87 83.17v8.17l-3.46-8.17H0v16.71h2.33V92l3.42 7.9h1.46V83.16H4.87zm7.99 0L9.75 99.88h2.47l.51-3.16h2.62l.5 3.16h2.55l-3.06-16.71h-2.48zm1.21 5.95l.92 5.4H13.1l.97-5.4zM26.48 83.17h-4.12c-.82 0-1.48.69-1.48 1.54v13.63c0 .88.66 1.54 1.54 1.54h4.06c.85 0 1.48-.66 1.48-1.54v-4.53h-2.48v3.91h-2.12v-12.4h2.12v3.02h2.48v-3.63a1.5 1.5 0 00-1.48-1.54M33.41 92.42h2.97v-2.18h-2.97v-4.91h3.16v-2.16h-5.64v16.71h5.7v-2.16h-3.22zM41.96 83.17h-2.48v16.71h6.11v-2.16h-3.63zM50.42 83.17h-2.48v16.71h6.12v-2.16h-3.64zM58.89 97.72v-5.3h2.97v-2.18h-2.97v-4.91h3.16v-2.16h-5.64v16.71h5.7v-2.16zM50.34 30.75a19.3 19.3 0 00-19.28-19.29 19.3 19.3 0 00-19.29 19.3 19.3 19.3 0 0019.29 19.28 19.3 19.3 0 0019.28-19.29"/>
    <path d="M32.93.1v7.7A23.06 23.06 0 0154.1 30.74c0 12.07-9.33 22-21.16 22.96v7.69a30.74 30.74 0 0028.83-30.65A30.74 30.74 0 0032.93.11M29.18 61.4v-7.7A23.06 23.06 0 018.02 30.76c0-12.07 9.34-22 21.16-22.96V.11A30.74 30.74 0 00.35 30.75 30.74 30.74 0 0029.18 61.4M63.62 84.86h-.18V83.6h.67c.13 0 .18.08.18.18v.42c0 .12-.1.18-.18.18H64l.33.5h-.2l-.43-.64.02-.02h.37v-.45h-.48v1.1zm-.7-.62c0 .6.36.92.91.92.56 0 .9-.35.9-.92 0-.55-.33-.92-.9-.92-.57 0-.9.37-.9.92zm.9-1.08c.66 0 1.09.44 1.09 1.08 0 .66-.43 1.08-1.08 1.08-.66 0-1.08-.4-1.08-1.08 0-.66.44-1.08 1.08-1.08z"/>
  </g>
</svg>