<svg width="42" height="42" xmlns="http://www.w3.org/2000/svg"><path d="M17.512 15.947l8.925 5.072-8.925 5.072V15.947zM42 4.5v33c0 2.484-2.016 4.5-4.5 4.5h-33A4.501 4.501 0 0 1 0 37.5v-33C0 2.016 2.016 0 4.5 0h33C39.984 0 42 2.016 42 4.5zm-3.938 16.528s0-5.587-.712-8.269a4.28 4.28 0 0 0-3.019-3.037C31.678 9 21 9 21 9s-10.678 0-13.331.722a4.28 4.28 0 0 0-3.019 3.037c-.713 2.672-.713 8.27-.713 8.27s0 5.587.713 8.268c.394 1.481 1.547 2.597 3.019 2.99C10.322 33 21 33 21 33s10.678 0 13.331-.722c1.472-.394 2.625-1.51 3.019-2.99.712-2.672.712-8.26.712-8.26z" fill="#D0021B"/></svg>