<svg class="icon" width="25" height="19" xmlns="https://www.w3.org/2000/svg" aria-labelledby="iconFilm">
    <path d="M23.83 0h-.4v.98c0 .32-.26.58-.58.58H20.9a.59.59 0 01-.59-.58V0H4.7v.98c0 .32-.27.58-.59.58H2.15a.59.59 0 01-.59-.58V0h-.39C.52 0 0 .52 0 1.17v16.4c0 .66.52 1.18 1.17 1.18h.4v-.98c0-.32.26-.58.58-.58H4.1c.32 0 .59.26.59.58v.98H20.3v-.98c0-.32.27-.58.59-.58h1.95c.32 0 .59.26.59.58v.98h.39c.65 0 1.17-.52 1.17-1.17V1.18C25 .51 24.48 0 23.83 0zM4.69 15.04c0 .32-.27.59-.59.59H2.15a.59.59 0 01-.59-.6V13.1c0-.33.27-.59.59-.59H4.1c.32 0 .59.26.59.59v1.95zm0-4.69c0 .32-.27.59-.59.59H2.15a.59.59 0 01-.59-.59V8.4c0-.32.27-.59.59-.59H4.1c.32 0 .59.27.59.59v1.95zm0-4.69c0 .33-.27.59-.59.59H2.15a.59.59 0 01-.59-.59V3.71c0-.32.27-.58.59-.58H4.1c.32 0 .59.26.59.58v1.95zm13.28 10.16c0 .32-.26.59-.59.59H7.62a.59.59 0 01-.59-.59v-4.69c0-.32.26-.58.59-.58h9.76c.33 0 .59.26.59.58v4.69zm0-8.2c0 .32-.26.58-.59.58H7.62a.59.59 0 01-.59-.58V2.93c0-.32.26-.59.59-.59h9.76c.33 0 .59.27.59.59v4.69zm5.47 7.42c0 .32-.27.59-.59.59H20.9a.59.59 0 01-.59-.6V13.1c0-.33.27-.59.59-.59h1.95c.32 0 .59.26.59.59v1.95zm0-4.69c0 .32-.27.59-.59.59H20.9a.59.59 0 01-.59-.59V8.4c0-.32.27-.59.59-.59h1.95c.32 0 .59.27.59.59v1.95zm0-4.69c0 .33-.27.59-.59.59H20.9a.59.59 0 01-.59-.59V3.71c0-.32.27-.58.59-.58h1.95c.32 0 .59.26.59.58v1.95z" fill-rule="nonzero"/>
</svg>
