<svg xmlns="http://www.w3.org/2000/svg" class="icon icon-press" width="19px" height="16px" aria-labelledby="iconPress" viewBox="0 0 19 16">
	<path fill-rule="nonzero" d="M3.42857143 2.28571429C3.42857143 1.025 4.45357143 0 5.71428571 0H16c1.2607143 0 2.2857143 1.025 2.2857143 2.28571429V13.7142857C18.2857143 14.975 17.2607143 16 16 16H2.85714286C1.27857143 16 0 14.7214286 0 13.1428571V3.42857143c0-.63214286.51071429-1.14285714 1.14285714-1.14285714.63214286 0 1.14285715.51071428 1.14285715 1.14285714v9.71428567c0 .3142858.25714285.5714286.57142857.5714286.31428571 0 .57142857-.2571428.57142857-.5714286V2.28571429Zm2.28571428.85714285V6c0 .475.38214286.85714286.85714286.85714286h8.57142853C15.6178571 6.85714286 16 6.475 16 6V3.14285714c0-.475-.3821429-.85714285-.8571429-.85714285H6.57142857c-.475 0-.85714286.38214285-.85714286.85714285Zm0 6.57142857c0 .31428569.25714286.57142859.57142858.57142859h3.42857142c.31428569 0 .57142859-.2571429.57142859-.57142859 0-.31428571-.2571429-.57142857-.57142859-.57142857H6.28571429c-.31428572 0-.57142858.25714286-.57142858.57142857Zm5.71428569 0c0 .31428569.2571429.57142859.5714286.57142859h3.4285714c.3142857 0 .5714286-.2571429.5714286-.57142859 0-.31428571-.2571429-.57142857-.5714286-.57142857H12c-.3142857 0-.5714286.25714286-.5714286.57142857ZM5.71428571 13.1428571c0 .3142858.25714286.5714286.57142858.5714286h3.42857142c.31428569 0 .57142859-.2571428.57142859-.5714286 0-.3142857-.2571429-.5714285-.57142859-.5714285H6.28571429c-.31428572 0-.57142858.2571428-.57142858.5714285Zm5.71428569 0c0 .3142858.2571429.5714286.5714286.5714286h3.4285714c.3142857 0 .5714286-.2571428.5714286-.5714286 0-.3142857-.2571429-.5714285-.5714286-.5714285H12c-.3142857 0-.5714286.2571428-.5714286.5714285Z"/>
</svg>
