<svg class="icon" width="25" height="20" xmlns="http://www.w3.org/2000/svg" viewBox="0 0 25 20" aria-labelledby="iconCatalog">
	<path fill-rule="nonzero" d="M15.5976588 19.9105721c-2.2734394-.3437503-4.226566-2.8437523-5.3750044-4.6757851-.78125065-1.2460947-.98046956-2.746096-.76562564-4.2070347l.94531324-6.41797396c.0546876-.38281281.1992189-.75000062.5039067-.98437581.7890631-.6093755 2.8281273-1.62109507 7.2304747-.95703203 4.4023473.66406304 6.0625049 2.24218933 6.6406304 3.05859625.2226476.31250026.2539064.70703183.1992189 1.08984464l-.9453133 6.41797401c-.2148439 1.4570324-.8398444 2.8359398-1.9453141 3.7968781-1.6289075 1.4101574-4.2187534 3.2226589-6.4882865 2.8789086Zm.6679693-10.84766512c.0039062-.01953127.0078125-.04296878.0117187-.06250005.1250001-.8515632-.4531253-1.64062634-1.2929698-1.7695327-.8398444-.12890635-1.621095.46093788-1.7460951 1.30859482-.0039063.01953127-.0039063.04296879-.0078126.06250005-.0234375.21093768.2031252.32812527.4023441.26171897.3515628-.1171876.7343756-.15234388 1.1210947-.09375008.3867191.0585938.7460944.20703142 1.0468758.42187535.1718752.12109385.4218754.07812506.4609379-.12890636h.0039063Zm4.3984411.86718821c.1718751.12109381.4218753.07812511.4609379-.12890636.0039062-.01953126.0078125-.04296878.0117187-.06250005.1250001-.85156319-.4531254-1.64062634-1.2929698-1.76953269-.8398444-.12890636-1.6210951.46093787-1.7460952 1.30859482-.0039062.01953126-.0039062.04296878-.0078125.06250005-.0234375.21093767.2031252.32812527.4023441.26171896.3515628-.11718759.7343756-.15234387 1.1210947-.09375008.386719.0585938.7460943.20703142 1.0468758.42187535h.0039063Zm-.4492191 3.32812771c-1.125001.5000004-2.3984395.6953131-3.7070343.5000004-1.3085948-.1953126-2.468752-.7617194-3.3984403-1.57422-.246094-.2148439-.632813-.0664063-.5937505.2617189.230469 1.8945328 1.6796889 3.4804716 3.6328155 3.7773469 1.9531266.2968752 3.7968781-.7890632 4.5625037-2.5351583.1328126-.3007815-.1953126-.5585942-.4921879-.4257816l-.0039062-.0039063ZM9.40234122 17.4574451c-2.27343936.3437503-4.86328523-1.464845-6.48828656-2.8789086-1.10546965-.957032-1.73047017-2.3359394-1.9453141-3.7968781L.0234273 4.36759064c-.05468754-.38281281-.02342872-.77734439.19921892-1.08984464C.80077168 2.46133908 2.46092929.88711904 6.86327664.21914975c4.40234736-.6679693 6.44141156.34765653 7.23047466.95703203.0351563.02734377.0664063.05468754.0937501.08203132-2.0625017.18750015-3.3242215.82031317-4.0468783 1.37890737-.66406307.51171917-.89843826 1.25000103-.97656333 1.79297022L8.4101529 9.55900114c-.10156258.00390625-.20312516.01562501-.308594.03125002-1.37500112.20703142-2.41406447 1.27734484-2.66406468 2.58984584-.06250005.3203128.32421902.4765629.57812548.2734378.60937549-.4843754 1.33203234-.832032 2.13672049-.9921884-.11718759 1.5000013.15625013 3.0742213 1.01171958 4.4375037.26953147.4296878.58593798.9023445.94531323 1.3828136-.23046889.0820313-.46484409.1406251-.70312553.1757814h-.00390625ZM6.80077659 6.13321708c-.03906253-.20703141-.28906274-.2500002-.46093788-.12890635-.30078149.21484392-.65625054.36328155-1.04687585.42187534-.39062532.0585938-.77343814.02343752-1.12109467-.09375007-.19921891-.06640631-.4257816.05078129-.40234408.26171896.00390625.01953127.00390625.04296879.00781251.06250005.1250001.8515632.90625074 1.43750118 1.74609517 1.30859482.83984444-.12890635 1.41796991-.9179695 1.29296981-1.76953269-.00390625-.01953127-.00781251-.04296879-.01171876-.06250006h-.00390625Z"/>
</svg>
