<svg class="icon" width="25" height="25" xmlns="https://www.w3.org/2000/svg" aria-labelledby="iconSpotify">
    <path d="M12.5 0a12.5 12.5 0 100 25 12.5 12.5 0 000-25zm5.07 18.38c-.21 0-.34-.06-.54-.18-3.14-1.9-6.8-1.97-10.41-1.23-.2.05-.46.13-.6.13a.78.78 0 01-.8-.8c0-.52.3-.76.68-.84 4.13-.91 8.35-.83 11.95 1.32.3.2.48.37.48.83 0 .46-.35.77-.76.77zm1.35-3.3c-.26 0-.43-.12-.62-.21a16.33 16.33 0 00-12.02-1.48c-.24.06-.37.13-.6.13a.98.98 0 01-.97-.98c0-.54.26-.9.78-1.04 1.6-.47 3.26-.7 4.92-.69 3.27 0 6.43.81 8.92 2.3.41.24.57.55.57.99a.98.98 0 01-.98.98zm1.57-3.84c-.24 0-.46-.07-.65-.2-3.6-2.14-10-2.65-14.16-1.5-.18.06-.4.14-.65.14a1.16 1.16 0 01-1.17-1.2c0-.68.42-1.06.88-1.2 1.92-.53 3.92-.79 5.92-.76 3.67 0 7.53.77 10.34 2.4.43.22.69.67.65 1.15 0 .68-.55 1.17-1.16 1.17z" fill-rule="nonzero"/>
</svg>
