<svg class="icon" width="18" height="25" xmlns="https://www.w3.org/2000/svg" aria-hidden="true" aria-labelledby="microphone">
    <path d="M16.4 9.38h-.77a.78.78 0 00-.79.78v2.34a6.26 6.26 0 01-6.87 6.22c-3.25-.32-5.63-3.24-5.63-6.5v-2.06a.78.78 0 00-.78-.79H.78a.78.78 0 00-.78.79v1.96c0 4.37 3.12 8.28 7.42 8.87v1.67H4.7a.78.78 0 00-.78.78v.78c0 .43.35.78.78.78h7.81c.43 0 .78-.35.78-.78v-.78a.78.78 0 00-.78-.78H9.77V21a8.6 8.6 0 007.42-8.51v-2.34a.78.78 0 00-.78-.79zm-7.8 7.8c2.58 0 4.68-2.1 4.68-4.68H9.11c-.28 0-.52-.17-.52-.4v-.77c0-.22.24-.4.52-.4h4.17V9.39H9.11c-.28 0-.52-.18-.52-.4V8.2c0-.21.24-.39.52-.39h4.17V6.25H9.11c-.28 0-.52-.17-.52-.4v-.77c0-.22.24-.4.52-.4h4.17a4.69 4.69 0 10-9.37 0v7.82c0 2.59 2.1 4.69 4.68 4.69z" fill-rule="nonzero" />
</svg>
