<svg class="icon" width="25" height="23" xmlns="https://www.w3.org/2000/svg" viewBox="0 0 25 23" aria-labelledby="iconHome">
	<path fill-rule="nonzero" d="M23.6044379 12.4837005c.73791 0 1.3890071-.6076905 1.3890071-1.3933476.0434064-.3906582-.1302194-.73791-.4774712-1.0417553l-2.2918616-2.0184008V2.77801403c0-.76829451-.6207125-1.38900702-1.389007-1.38900702h-1.389007c-.7682945 0-1.389007.62071251-1.389007 1.38900702v1.59301742L13.4343022.30384528C13.1738634.08681294 12.8266116 0 12.5227664 0c-.3038453 0-.6510971.04340647-.9549424.34725175L.4340647 10.0485976C.1302194 10.3524429 0 10.6996947 0 11.0903529c0 .7813164.60769057 1.3933476 1.38900701 1.3933476h1.38900702v3.0254309c-.00434065.0390659-.00434065.0781317-.00434065.1215382v4.8571839c0 .9592829.7769758 1.7362587 1.73625877 1.7362587h.69450351c.05208776 0 .10417552-.0043406.15626328-.0086813.06510971.0043407.13021941.0086813.19532912.0086813h2.43076227c.95928297 0 1.73625877-.7769758 1.73625877-1.7362587v-3.8197693c0-.7682945.6207125-1.389007 1.389007-1.389007h2.778014c.7682945 0 1.3890071.6207125 1.3890071 1.389007v3.8197693c0 .9592829.7769758 1.7362587 1.7362587 1.7362587H19.4678014c.0607691 0 .1215381 0 .1823072-.0043406.0477471.0043406.0954942.0043406.1432413.0043406h.6945036c.9592829 0 1.7362587-.7769758 1.7362587-1.7362587v-.7031848c.013022-.1128569.0217033-.2300543.0217033-.3515924l-.0303846-6.9537164h1.389007v.0043406Z"/>
</svg>
