<svg class="icon" aria-labelledby="iconAlbums" width="20" height="20" fill="#000" xmlns="http://www.w3.org/2000/svg">
	<path d="M10 0C4.477 0 0 4.477 0 10s4.477 10 10 10 10-4.477 10-10S15.523 0 10 0ZM3.153 10h-.042a.619.619 0 0 1-.608-.677 7.537 7.537 0 0 1 6.845-6.82c.351-.031.652.26.652.626a.62.62 0 0 1-.557.624A6.278 6.278 0 0 0 3.756 9.43a.616.616 0 0 1-.603.57ZM10 13.715c-2.071 0-3.75-1.68-3.75-3.715S7.929 6.25 10 6.25A3.75 3.75 0 0 1 13.75 10c0 2.07-1.68 3.715-3.75 3.715Zm0-4.965c-.691 0-1.25.555-1.25 1.25s.559 1.25 1.25 1.25 1.25-.557 1.25-1.25-.559-1.25-1.25-1.25Z" fill-rule="nonzero"/>
</svg>
