<svg class="icon" width="20" height="20" xmlns="https://www.w3.org/2000/svg" aria-hidden="true">
    <title>Full Screen</title>
    <path d="M20 13.93v5A1.07 1.07 0 0118.93 20h-5a1.07 1.07 0 01-.76-1.83l1.62-1.62L10 11.77l-4.79 4.79 1.62 1.61c.67.67.2 1.83-.76 1.83h-5A1.07 1.07 0 010 18.93v-5c0-.96 1.16-1.43 1.83-.76l1.62 1.62L8.23 10 3.45 5.21 1.83 6.83C1.16 7.5 0 7.03 0 6.07v-5A1.07 1.07 0 011.07 0h5c.96 0 1.43 1.16.76 1.83L5.21 3.45 10 8.23l4.79-4.79-1.62-1.61c-.67-.67-.2-1.83.76-1.83h5A1.07 1.07 0 0120 1.07v5c0 .96-1.16 1.43-1.83.76l-1.62-1.62L11.77 10l4.78 4.79 1.62-1.62c.67-.67 1.83-.2 1.83.76z" fill-rule="nonzero" fill="#000"/>
</svg>
