<svg class="icon" width="26" height="26" xmlns="http://www.w3.org/2000/svg" aria-labelledby="iconInstagram">
    <path d="M13.43 6.91a6.4 6.4 0 100 12.82 6.4 6.4 0 100-12.82zm0 10.58a4.17 4.17 0 11-.52-8.33 4.17 4.17 0 01.52 8.33zm8.16-10.84a1.5 1.5 0 11-2.99 0 1.5 1.5 0 013 0zm4.25 1.52c-.1-2-.55-3.78-2.02-5.24-1.46-1.46-3.24-1.92-5.24-2.02C16.52.8 10.33.8 8.27.91c-2 .1-3.77.55-5.24 2.02-1.47 1.46-1.92 3.23-2.02 5.23-.11 2.07-.11 8.25 0 10.32.1 2 .55 3.77 2.02 5.23 1.47 1.46 3.24 1.92 5.24 2.02 2.06.12 8.25.12 10.31 0 2-.1 3.78-.55 5.24-2.02 1.46-1.46 1.92-3.23 2.02-5.23.11-2.07.11-8.25 0-10.31zm-2.67 12.52a4.22 4.22 0 01-2.37 2.38c-1.65.65-5.55.5-7.37.5-1.82 0-5.73.14-7.37-.5a4.22 4.22 0 01-2.38-2.38c-.65-1.65-.5-5.55-.5-7.37 0-1.82-.14-5.73.5-7.37a4.22 4.22 0 012.38-2.37c1.65-.65 5.55-.5 7.37-.5 1.82 0 5.73-.15 7.37.5a4.22 4.22 0 012.37 2.37c.65 1.65.5 5.55.5 7.37 0 1.82.15 5.73-.5 7.37z" fill-rule="nonzero" />
</svg>
