<svg class="icon" width="25" height="11" xmlns="http://www.w3.org/2000/svg" aria-labelledby="iconSoundcloud">
    <path d="M4.35 5.44l.23 2.54-.23 2.67c-.01.1-.08.17-.17.17a.17.17 0 01-.16-.17L3.8 7.98l.22-2.54c0-.09.07-.16.16-.16s.16.07.17.16zm.84-1.78c-.11 0-.19.09-.2.2l-.2 4.12.2 2.67c.01.1.09.2.2.2.1 0 .18-.1.18-.2l.23-2.67-.23-4.13c0-.1-.08-.2-.18-.2zm1-.94c-.13 0-.21.08-.22.2L5.79 8l.18 2.65c0 .12.1.2.21.2.11 0 .21-.08.21-.2L6.6 8l-.2-5.07a.2.2 0 00-.2-.21zM.28 6.49c-.06 0-.1.04-.1.1L0 7.98l.18 1.37c.02.05.05.1.1.1.06 0 .09-.05.1-.1L.6 7.98l-.22-1.4C.37 6.54.34 6.5.28 6.5zm.91-.85a.1.1 0 00-.1.1L.87 7.97l.25 2.2c0 .06.04.1.1.1.05 0 .1-.04.1-.1l.28-2.2-.28-2.25c0-.05-.05-.1-.1-.1zm1-.45c-.07 0-.13.06-.14.13l-.22 2.66.22 2.57c.01.07.07.12.13.12.07 0 .12-.05.12-.12l.27-2.57-.27-2.66c0-.07-.05-.13-.12-.13zm.98-.09a.14.14 0 00-.14.15L2.8 7.98l.23 2.65c0 .08.07.14.14.14s.14-.06.15-.14l.25-2.65-.25-2.73a.16.16 0 00-.15-.15zM12.61.77a.3.3 0 00-.16-.05.36.36 0 00-.22.07.4.4 0 00-.13.26v.04l-.13 6.9.07 1.27.06 1.24c.01.18.17.33.35.33.18 0 .34-.15.34-.33l.15-2.51-.15-6.94a.38.38 0 00-.18-.28zm-1.04.6a.34.34 0 00-.17-.05.33.33 0 00-.18.05.3.3 0 00-.14.26v.07l-.12 6.28.12 2.56v.01c0 .07.03.13.07.19.06.07.15.12.25.12.09 0 .16-.04.22-.1.06-.05.1-.13.1-.22v-.26L11.86 8l-.13-6.36c0-.1-.07-.2-.15-.26zm-4.35.88c-.13 0-.23.1-.23.24l-.17 5.49.17 2.63c.01.12.1.22.23.22.12 0 .22-.1.23-.22l.2-2.63-.2-5.5c0-.12-.1-.23-.23-.23zM21.93 4.7c-.4 0-.81.08-1.2.24A5.43 5.43 0 0013.38.37c-.24.09-.3.17-.3.36v9.75c0 .2.15.34.33.36h8.53a3.07 3.07 0 000-6.14zM10.34 2.35c-.16 0-.3.13-.3.3L9.9 8l.13 2.56c0 .17.14.3.3.3.16 0 .3-.13.3-.3L10.78 8l-.16-5.34c0-.17-.13-.3-.29-.3zm-2.1-.3c-.12 0-.24.11-.24.25l-.16 5.68.16 2.61c0 .14.12.25.25.25.14 0 .25-.1.26-.25l.17-2.61-.17-5.68c-.01-.14-.12-.26-.26-.26zm1.05.12a.27.27 0 00-.27.27l-.15 5.54.15 2.6a.27.27 0 00.54 0l.16-2.6-.16-5.54a.27.27 0 00-.27-.27z" fill-rule="nonzero" />
</svg>
