<svg class="icon" width="22" height="25" xmlns="https://www.w3.org/2000/svg" viewBox="0 0 22 25" aria-labelledby="iconBook" >
	<path fill-rule="nonzero" d="M4.6875 0C2.09960938 0 0 2.09960938 0 4.6875v15.625C0 22.9003906 2.09960938 25 4.6875 25h15.625c.8642578 0 1.5625-.6982422 1.5625-1.5625s-.6982422-1.5625-1.5625-1.5625V18.75c.8642578 0 1.5625-.6982422 1.5625-1.5625V1.5625C21.875.69824219 21.1767578 0 20.3125 0H4.6875Zm0 18.75h12.5v3.125h-12.5c-.86425781 0-1.5625-.6982422-1.5625-1.5625S3.82324219 18.75 4.6875 18.75ZM6.25 7.03125c0-.4296875.3515625-.78125.78125-.78125h9.375c.4296875 0 .78125.3515625.78125.78125s-.3515625.78125-.78125.78125h-9.375c-.4296875 0-.78125-.3515625-.78125-.78125ZM7.03125 9.375h9.375c.4296875 0 .78125.3515625.78125.78125s-.3515625.78125-.78125.78125h-9.375c-.4296875 0-.78125-.3515625-.78125-.78125s.3515625-.78125.78125-.78125Z"/>
</svg>
