<svg class="icon" width="25" height="25" xmlns="http://www.w3.org/2000/svg" aria-labelledby="iconYoutube">
    <title id="iconYoutube">visit <?php echo get_bloginfo(); ?> YouTube</title>
    <path d="M10.42 9.5l5.32 3.01-5.32 3.02V9.49zM25 2.67v19.64C25 23.8 23.8 25 22.32 25H2.68A2.68 2.68 0 010 22.32V2.68C0 1.2 1.2 0 2.68 0h19.64C23.8 0 25 1.2 25 2.68zm-2.34 9.84s0-3.33-.43-4.93a2.54 2.54 0 00-1.8-1.8c-1.57-.43-7.93-.43-7.93-.43s-6.36 0-7.94.43c-.87.23-1.56.92-1.8 1.8-.42 1.6-.42 4.93-.42 4.93s0 3.32.43 4.92c.23.87.92 1.55 1.8 1.78 1.57.42 7.93.42 7.93.42s6.36 0 7.94-.43c.87-.22 1.56-.9 1.8-1.78.42-1.59.42-4.91.42-4.91z" fill-rule="nonzero" />
</svg>