<svg class="icon" aria-labelledby="iconSeries" width="14" height="20" xmlns="http://www.w3.org/2000/svg">
	<path d="M13.357 7.616h-.628a.644.644 0 0 0-.454.178.61.61 0 0 0-.189.44v1.856a4.905 4.905 0 0 1-1.676 3.67 5.187 5.187 0 0 1-3.919 1.261c-2.647-.254-4.585-2.569-4.585-5.153V8.235a.61.61 0 0 0-.183-.443.644.644 0 0 0-.452-.184H.635a.644.644 0 0 0-.452.184.61.61 0 0 0-.183.443v1.554c0 3.464 2.541 6.564 6.043 7.032v1.324H3.828a.627.627 0 0 0-.635.618v.619c0 .34.285.618.635.618h6.36c.35 0 .636-.277.636-.618v-.619a.627.627 0 0 0-.636-.618H7.957v-1.316c3.461-.467 6.04-3.346 6.043-6.747V8.227a.61.61 0 0 0-.183-.443.644.644 0 0 0-.452-.184l-.008.016ZM7.004 13.8c2.101 0 3.812-1.665 3.812-3.71H7.419c-.228 0-.423-.135-.423-.317v-.61c0-.175.195-.318.423-.318h3.397v-1.22H7.419c-.228 0-.423-.144-.423-.318v-.626c0-.167.195-.31.423-.31h3.397V5.135H7.419c-.228 0-.423-.135-.423-.317v-.61c0-.175.195-.318.423-.318h3.397c.064-1.368-.648-2.66-1.856-3.363a3.91 3.91 0 0 0-3.92 0C3.832 1.23 3.12 2.522 3.184 3.89v6.2c0 2.053 1.71 3.718 3.812 3.718l.008-.008Z" fill-rule="nonzero"/>
</svg>
