<svg class="icon" width="15" height="15" aria-labelledby="external link" xmlns="http://www.w3.org/2000/svg">
	<path d="M10.938 8.75h-.626a.313.313 0 00-.312.313v2.187H3.75V5h2.813c.172 0 .312-.14.312-.313v-.625a.313.313 0 00-.313-.312H3.438a.938.938 0 00-.937.938v6.875c0 .517.42.937.938.937h6.874c.518 0 .938-.42.938-.938v-2.5a.313.313 0 00-.313-.312zM12.03 2.5h-2.5a.47.47 0 00-.332.8L9.897 4l-4.76 4.758a.469.469 0 000 .664l.442.442a.469.469 0 00.665 0l4.758-4.76.697.698a.47.47 0 00.801-.332v-2.5a.469.469 0 00-.469-.469z" fill-rule="nonzero"></path>
</svg>
