<svg class="icon" width="22" height="25" xmlns="http://www.w3.org/2000/svg" viewBox="0 0 22 25" aria-labelledby="iconPodcast" >
	<path fill-rule="nonzero" d="M15.5926577 18.1605155c2.3677016-1.5280218 3.9347783-4.1935169 3.9347783-7.2251513 0-4.74516697-3.8469049-8.59207187-8.5920718-8.59207187-4.74516697 0-8.59207187 3.8469049-8.59207187 8.59207187 0 3.0316344 1.56707674 5.6922476 3.93477836 7.2251513.05858231.8445616.19527436 1.8551064.35149385 2.7875415l.00976372.0488186C2.73384105 19.322398 0 15.4510838 0 10.9353642 0 4.89650459 4.89650459 0 10.9353642 0c6.0388596 0 10.9353642 4.89650459 10.9353642 10.9353642 0 4.5157196-2.7338411 8.3919156-6.6393283 10.0615114l.0097637-.0537004c.1513377-.937317.2929116-1.9429799.3514939-2.7826597Zm-.1122828-1.8599883c-.0781097-.2782659-.1903925-.5418863-.3417301-.7908611-.2831478-.4735403-.659051-.8299161-1.0691271-1.0935364.9519625-.8592072 1.5524311-2.0991994 1.5524311-3.4807655 0-2.58738529-2.0991993-4.68658466-4.6865846-4.68658466-2.58738529 0-4.68658466 2.09919937-4.68658466 4.68658466 0 1.3815661.60046865 2.6264401 1.55243116 3.4807655-.41007616.2636203-.7859793.6199961-1.06912712 1.0935364-.15133763.2489748-.26362039.5125952-.34173013.7908611-1.51825816-1.2888107-2.48486624-3.217145-2.48486624-5.365163 0-3.88107793 3.14879906-7.02987699 7.02987699-7.02987699 3.8810779 0 7.029877 3.14879906 7.029877 7.02987699 0 2.148018-.9666081 4.0763523-2.4848663 5.365163Zm-4.5450107-1.0691271c1.6061316 0 3.1243898.4198399 3.1243898 2.1382543 0 1.6110134-.6297599 5.0820152-1.005663 6.4879906C12.8051162 24.7851982 11.8580355 25 10.9353642 25c-.9226714 0-1.86487016-.2148018-2.11872682-1.142355-.38078501-1.3913298-1.00566296-4.8672134-1.00566296-6.4831088 0-1.7135325 1.51825815-2.1382542 3.12438978-2.1382542v-.0048819Zm0-1.5621949c-1.50849445 0-2.73384106-1.2253466-2.73384106-2.733841 0-1.50849445 1.22534661-2.73384106 2.73384106-2.73384106 1.5084944 0 2.733841 1.22534661 2.733841 2.73384106 0 1.5084944-1.2253466 2.733841-2.733841 2.733841Z"/>
</svg>
