<svg class="icon" width="20px" height="14px" viewBox="0 0 20 14" version="1.1" xmlns="http://www.w3.org/2000/svg" xmlns:xlink="http://www.w3.org/1999/xlink">
    <title>icon-newspaper</title>
    <g id="Page-1" stroke="none" stroke-width="1" fill-rule="evenodd">
        <g id="icon-newspaper" fill="#000000" fill-rule="nonzero">
            <path d="M19.1666667,0 L3.88888889,0 C3.16465278,0 2.54711806,0.464479167 2.31777778,1.11111111 L0.833333333,1.11111111 C0.373090278,1.11111111 0,1.48420139 0,1.94444444 L0,11.3888889 C0,12.4627778 0.870555556,13.3333333 1.94444444,13.3333333 L19.1666667,13.3333333 C19.6269097,13.3333333 20,12.9602431 20,12.5 L20,0.833333333 C20,0.373090278 19.6269097,0 19.1666667,0 Z M1.66666667,11.3888889 L1.66666667,2.77777778 L2.22222222,2.77777778 L2.22222222,11.3888889 C2.22222222,11.5420486 2.09760417,11.6666667 1.94444444,11.6666667 C1.79128472,11.6666667 1.66666667,11.5420486 1.66666667,11.3888889 Z M18.3333333,11.6666667 L3.86881944,11.6666667 C3.88180556,11.5759028 3.88888889,11.4832292 3.88888889,11.3888889 L3.88888889,1.66666667 L18.3333333,1.66666667 L18.3333333,11.6666667 Z M5.97222222,7.5 L10.6944444,7.5 C10.9245486,7.5 11.1111111,7.3134375 11.1111111,7.08333333 L11.1111111,3.75 C11.1111111,3.51989583 10.9245486,3.33333333 10.6944444,3.33333333 L5.97222222,3.33333333 C5.74211806,3.33333333 5.55555556,3.51989583 5.55555556,3.75 L5.55555556,7.08333333 C5.55555556,7.3134375 5.74211806,7.5 5.97222222,7.5 Z M6.94444444,4.72222222 L9.72222222,4.72222222 L9.72222222,6.11111111 L6.94444444,6.11111111 L6.94444444,4.72222222 Z M5.55555556,9.58333333 L5.55555556,8.75 C5.55555556,8.51989583 5.74211806,8.33333333 5.97222222,8.33333333 L10.6944444,8.33333333 C10.9245486,8.33333333 11.1111111,8.51989583 11.1111111,8.75 L11.1111111,9.58333333 C11.1111111,9.8134375 10.9245486,10 10.6944444,10 L5.97222222,10 C5.74211806,10 5.55555556,9.8134375 5.55555556,9.58333333 Z M12.2222222,9.58333333 L12.2222222,8.75 C12.2222222,8.51989583 12.4087847,8.33333333 12.6388889,8.33333333 L16.25,8.33333333 C16.4801042,8.33333333 16.6666667,8.51989583 16.6666667,8.75 L16.6666667,9.58333333 C16.6666667,9.8134375 16.4801042,10 16.25,10 L12.6388889,10 C12.4087847,10 12.2222222,9.8134375 12.2222222,9.58333333 Z M12.2222222,4.58333333 L12.2222222,3.75 C12.2222222,3.51989583 12.4087847,3.33333333 12.6388889,3.33333333 L16.25,3.33333333 C16.4801042,3.33333333 16.6666667,3.51989583 16.6666667,3.75 L16.6666667,4.58333333 C16.6666667,4.8134375 16.4801042,5 16.25,5 L12.6388889,5 C12.4087847,5 12.2222222,4.8134375 12.2222222,4.58333333 Z M12.2222222,7.08333333 L12.2222222,6.25 C12.2222222,6.01989583 12.4087847,5.83333333 12.6388889,5.83333333 L16.25,5.83333333 C16.4801042,5.83333333 16.6666667,6.01989583 16.6666667,6.25 L16.6666667,7.08333333 C16.6666667,7.3134375 16.4801042,7.5 16.25,7.5 L12.6388889,7.5 C12.4087847,7.5 12.2222222,7.3134375 12.2222222,7.08333333 Z" id="Shape"></path>
        </g>
    </g>
</svg>
