<svg width="42" height="42" xmlns="http://www.w3.org/2000/svg"><path d="M32.86 24.066c0 .506.15 1.35-.582 1.35a.386.386 0 0 1-.356-.225c-.206-.479-.103-4.135-.103-4.191 0-.356-.103-1.19.46-1.19.683 0 .58.684.58 1.19v3.066zm-8.016-5.513c0-.91.15-1.5-.966-1.5V24.9c1.144.028.966-.816.966-1.725v-4.622zM42 4.5v33c0 2.484-2.016 4.5-4.5 4.5h-33A4.501 4.501 0 0 1 0 37.5v-33C0 2.016 2.016 0 4.5 0h33C39.984 0 42 2.016 42 4.5zM2 18.452c-.01.01-.02.03-.03.04H2v-.04zM9.095 15H6v11.981h3.094V15zm10.622 0h-4.041l-.713 5.616c-.253-1.875-.506-3.76-.815-5.616h-4.013v11.981h2.72V19.06l1.143 7.922h1.931l1.088-8.1v8.1h2.69V15h.01zm8.09 4.247c0-.76.028-1.575-.131-2.288C27.272 14.85 24.731 15 23.081 15h-2.306v11.981c8.072.01 7.031.563 7.031-7.734zm8.053 1.622c0-1.622-.075-2.822-2.08-2.822-.835 0-1.398.253-1.96.862V15h-2.972v11.981h2.794l.178-.76c.534.638 1.115.92 1.96.92 1.855 0 2.08-1.425 2.08-2.897v-3.375z" fill="#FFBC00"/></svg>